<svg xmlns="http://www.w3.org/2000/svg" viewBox="0 0 560 130" width="560" height="130">
  
  <defs><linearGradient id="fade_td" x1="0" x2="1" y1="0" y2="0">
      <stop offset="0" stop-color="#fff"></stop><stop offset="0.86" stop-color="#fff"></stop>
      <stop offset="0.95" stop-color="#fff" stop-opacity="0.72"></stop><stop offset="1" stop-color="#fff" stop-opacity="0.5"></stop>
    </linearGradient>
    <mask id="tmask_td"><rect x="286" y="20" width="150" height="90" fill="url(#fade_td)"></rect></mask></defs>
  <g transform="translate(14,20) scale(0.74)"><defs><filter id="glow_td" x="-60%" y="-60%" width="220%" height="220%"><feGaussianBlur stdDeviation="3" result="b"></feGaussianBlur><feMerge><feMergeNode in="b"></feMergeNode><feMergeNode in="SourceGraphic"></feMergeNode></feMerge></filter></defs><line x1="60" y1="20" x2="22" y2="90" stroke="rgba(106,168,255,0.45)" stroke-width="2.4" stroke-linecap="round"></line><line x1="60" y1="20" x2="98" y2="90" stroke="rgba(106,168,255,0.45)" stroke-width="2.4" stroke-linecap="round"></line><line x1="22" y1="90" x2="98" y2="90" stroke="rgba(106,168,255,0.45)" stroke-width="2.4" stroke-linecap="round"></line><line x1="60" y1="20" x2="60" y2="64" stroke="rgba(106,168,255,0.45)" stroke-width="2.4" stroke-linecap="round"></line><line x1="22" y1="90" x2="60" y2="64" stroke="rgba(106,168,255,0.45)" stroke-width="2.4" stroke-linecap="round"></line><line x1="98" y1="90" x2="60" y2="64" stroke="rgba(106,168,255,0.45)" stroke-width="2.4" stroke-linecap="round"></line><circle cx="60" cy="20" r="6" fill="#ff4b6e" filter="url(#glow_td)"></circle><circle cx="22" cy="90" r="6" fill="#6aa8ff"></circle><circle cx="98" cy="90" r="6" fill="#6aa8ff"></circle><circle cx="60" cy="64" r="5" fill="#6aa8ff"></circle></g>
  <text x="132" y="88" font-family="-apple-system,BlinkMacSystemFont,&#39;Segoe UI&#39;,Helvetica,Arial,sans-serif" font-size="58" font-weight="600" letter-spacing="-1.6" fill="#e8eaf0">Maya</text>
  <text x="286" y="88" font-family="-apple-system,BlinkMacSystemFont,&#39;Segoe UI&#39;,Helvetica,Arial,sans-serif" font-size="58" font-weight="600" letter-spacing="-1.6" fill="#6aa8ff" mask="url(#tmask_td)">Trail</text>
  <circle cx="450" cy="71" r="5" fill="#6aa8ff" opacity="0.5"></circle><circle cx="466" cy="71" r="4" fill="#6aa8ff" opacity="0.28"></circle><circle cx="480" cy="71" r="3" fill="#6aa8ff" opacity="0.13"></circle>
</svg>