<svg xmlns="http://www.w3.org/2000/svg" viewBox="0 0 560 130" width="560" height="130">
  
  <defs><linearGradient id="fade_cl" x1="0" x2="1" y1="0" y2="0">
      <stop offset="0" stop-color="#fff"></stop><stop offset="0.86" stop-color="#fff"></stop>
      <stop offset="0.95" stop-color="#fff" stop-opacity="0.72"></stop><stop offset="1" stop-color="#fff" stop-opacity="0.5"></stop>
    </linearGradient>
    <mask id="tmask_cl"><rect x="286" y="20" width="150" height="90" fill="url(#fade_cl)"></rect></mask></defs>
  <g transform="translate(14,20) scale(0.74)"><defs><filter id="glow_cl" x="-60%" y="-60%" width="220%" height="220%"><feGaussianBlur stdDeviation="3" result="b"></feGaussianBlur><feMerge><feMergeNode in="b"></feMergeNode><feMergeNode in="SourceGraphic"></feMergeNode></feMerge></filter></defs><line x1="20" y1="88" x2="46" y2="62" stroke="rgba(47,95,168,0.5)" stroke-width="2.4" stroke-linecap="round"></line><line x1="46" y1="62" x2="40" y2="28" stroke="rgba(47,95,168,0.5)" stroke-width="2.4" stroke-linecap="round"></line><line x1="46" y1="62" x2="82" y2="42" stroke="rgba(47,95,168,0.5)" stroke-width="2.4" stroke-linecap="round"></line><line x1="82" y1="42" x2="99" y2="84" stroke="rgba(47,95,168,0.5)" stroke-width="2.4" stroke-linecap="round"></line><line x1="46" y1="62" x2="68" y2="98" stroke="rgba(47,95,168,0.5)" stroke-width="2.4" stroke-linecap="round"></line><line x1="99" y1="84" x2="68" y2="98" stroke="rgba(47,95,168,0.5)" stroke-width="2.4" stroke-linecap="round"></line><circle cx="20" cy="88" r="5.5" fill="#2f5fa8"></circle><circle cx="46" cy="62" r="6.5" fill="#2f5fa8"></circle><circle cx="40" cy="28" r="5" fill="#ff4b6e" filter="url(#glow_cl)"></circle><circle cx="82" cy="42" r="6" fill="#2f5fa8"></circle><circle cx="99" cy="84" r="5.5" fill="#2f5fa8"></circle><circle cx="68" cy="98" r="5" fill="#2f5fa8"></circle></g>
  <text x="132" y="88" font-family="-apple-system,BlinkMacSystemFont,&#39;Segoe UI&#39;,Helvetica,Arial,sans-serif" font-size="58" font-weight="600" letter-spacing="-1.6" fill="#0b0d12">Maya</text>
  <text x="286" y="88" font-family="-apple-system,BlinkMacSystemFont,&#39;Segoe UI&#39;,Helvetica,Arial,sans-serif" font-size="58" font-weight="600" letter-spacing="-1.6" fill="#2f5fa8" mask="url(#tmask_cl)">Trail</text>
  <circle cx="450" cy="71" r="5" fill="#2f5fa8" opacity="0.5"></circle><circle cx="466" cy="71" r="4" fill="#2f5fa8" opacity="0.28"></circle><circle cx="480" cy="71" r="3" fill="#2f5fa8" opacity="0.13"></circle>
</svg>